{"accessors" : [{"bufferView" : 0, "byteOffset" : 0, "componentType" : 5125, "count" : 74772, "type" : "SCALAR", "max" : [74771], "min" : [0]}, {"bufferView" : 1, "byteOffset" : 0, "componentType" : 5126, "count" : 74772, "type" : "VEC3", "max" : [1794537.375, 1794541.375, 1794545.375], "min" : [33.40006637573242, 37.40006637573242, 41.40006637573242]}, {"bufferView" : 1, "byteOffset" : 12, "componentType" : 5126, "count" : 74772, "type" : "VEC3", "max" : [1794549.375, 1794553.375, 1794557.375], "min" : [45.40006637573242, 49.40006637573242, 53.40006637573242]}], "asset" : {"generator" : "Aspose.3D 20.8", "version" : "2.0"}, "buffers" : [{"uri" : "buffer.bin", "byteLength" : 2093624}], "bufferViews" : [{"buffer" : 0, "byteOffset" : 0, "byteLength" : 299088, "target" : 34963}, {"buffer" : 0, "byteOffset" : 299092, "byteLength" : 1794528, "byteStride" : 24, "target" : 34962}], "meshes" : [{"primitives" : [{"attributes" : {"POSITION" : 1, "NORMAL" : 2}, "indices" : 0, "mode" : 4}]}], "nodes" : [{"mesh" : 0, "name" : ""}], "scene" : 0, "scenes" : [{"nodes" : [0]}]}